<svg xmlns="http://www.w3.org/2000/svg">
    <symbol
    viewBox="0 0 512 512"
    id="logo"
    >
        <g transform="translate(0,0)">
            <path
            d="M248 20.3L72.33 132.6 248 128.8zm16 0v108.5l175.7 3.8zm51.4 58.9c6.1 3.5 8.2 7.2 15.1 4.2 10.7.8 22.3 5.8 27.6 15.7 4.7 4.5 1.5 12.6-5.2 12.6-9.7.1-19.7-6.1-14.6-8.3 4.7-2 14.7.9 10-5.5-3.6-4.5-11-7.8-16.3-5.9-1.6 6.8-9.4 4-12-.7-2.3-5.8-9.1-8.2-15-7.9-6.1 2.7 1.6 8.8 5.3 9.9 7.9 2.2.2 7.5-4.1 5.1-4.2-2.4-15-9.6-13.5-18.3 5.8-7.39 15.8-4.62 22.7-.9zm-108.5-3.5c5.5.5 12.3 3 10.2 9.9-4.3 7-9.8 13.1-18.1 14.8-6.5 3.4-14.9 4.4-21.6 1.9-3.7-2.3-13.5-9.3-14.9-3.4-2.1 14.8.7 13.1-11.1 17.8V92.3c9.9-3.9 21.1-4.5 30.3 1.3 8 4.2 19.4 1.5 24.2-5.7 1.4-6.5-8.1-4.6-12.2-3.4-2.7-8.2 7.9-7.5 13.2-8.8zm35 69.2L55.39 149l71.21 192.9zm28.2 0l115.3 197L456.6 149zm-14.1 7.5L138.9 352.6h234.2zm133.3 21.1c13.9 8.3 21.5 26.2 22.1 43-1.3 13.6-.7 19.8-15.2 21.4-14.5 1.6-23.9-19.2-29.7-32.6-3.4-9.9-5.8-24 1.7-31.3 6.1-4.8 15-4.1 21.1-.5zm-223.7 16.1c2.1 4-.5 11.4-4.8 12.1-4.9.7-3.8-9.3-9.4-11.6-6.9-2.3-13.6 5.6-15 11.6 10.4-4 20.3 7.1 20.3 17-.4 11.7-7.9 24.8-19.7 28.1h-5.6c-12.7-.7-18.3-15.8-14.2-26.6 4.4-15.8 10.8-33.9 27.2-40.6 8.5-3.9 19 3.2 21.2 10zm213.9-8.4c-7.1-.1-4.4 10-3.3 14.5 3.5 11.5 7.3 26.6 18.9 30 6.8-1.2 4.4-12.8 3.7-16.5-4.7-10.9-7.1-23.3-19.3-28zM52 186v173.2l61.9-5.7zm408 0l-61.9 167.5 61.9 5.7zm-117.9.7l28.5 63.5-10 4.4-20-43.3c-6.1 3-13 8.9-14.6-1.4-1.3-3.9 8.5-5.1 8.1-11.9-.3-6.9 2.2-12.2 8-11.3zm-212 27.4c-2.4 5.1-4.1 10.3-2.7 15.9 1.7 8.8 13.5 6.4 15.6-.8 2.7-5 3.9-11.7-.5-15.7-4.1-3.4-8.9-2.8-12.4.6zm328.4 41.6c-.1 18.6 1.1 39.2-9.7 55.3-.9 1.2-2.2 1.9-3.7 2.5-5.8-4.1-3-11.3 1.2-15.5 1 7.3 5.5-2.9 6.6-5.6 1.3-3.2 3.6-17.7-1-10.2.7 4-6.8 13.1-9.3 8.1-5-14.4 0-30.5 7-43.5 5.7-6.2 9.9 4.4 8.9 8.9zM59.93 245.5c.59.1 1.34 1 2.48 3.6v61.1c-7.3-7-4.47-18-4.45-26.4 0-8.4 1.65-16.3-1.28-23.2-4.62-1.7-5.79-17-3.17-12.7 4.41 4.8 4.66-2.7 6.42-2.4zm178.77 7.6c8.1 4.5 13.8 14.4 10.8 23.6-2.1 15.2-27 21.1-30.4 29.7-1.2 3 25.4 1.6 30.2 1.6.5 4 1.5 10.7-3.8 11.7-14.5-1.2-29.9-.6-45.1-.6.4-11.2 7.4-21.3 17-26.8 6.9-4.9 15.4-9.3 18.1-17.9 1.8-4.5-.6-9.3-4.6-11.5-4.2-2.9-11-2.3-13.2 2.7-2 3.8-4.4 9.1-8.7 9.6-2.9.4-9 .5-7.2-4.9 1.4-5.6 3.4-11.5 8.2-15.2 8.8-6.3 19.9-6.7 28.7-2zm53.3-1.4c6.8 2.2 12 7.9 14.3 14.6 6.1 14.7 5.5 33.1-4.4 45.9-4.5 4.8-10.2 9.1-17 9.1-12.5-.1-22.4-11.1-24.8-22.8-3.1-13.4-1.8-28.7 6.9-39.8 6.8-7.6 16-10.3 25-7zm156.1 8.1c-1.6 5.9-3.3 13.4-.7 19.3 5.1-2 5.4-9.6 6.6-14.5.9-6.1-3.5-12.6-5.9-4.8zm-176.2 21.1c.6 10.5 1.7 22.8 9.7 28.2 4.9 1.8 9.7-2.2 11.1-6.7 1.9-6.3 2.3-12.9 2.4-19.4-.2-7.1-1.5-15-6.7-20.1-12.2-4.4-15.3 10.9-16.5 18zM434 266.8V328l-4.4 6.7v-42.3c-4.6 7.5-9.1 9.1-6.1-.9 6.1-7.1 4.8-17.4 10.5-24.7zM83.85 279c.8 3.6 5.12 17.8 2.04 14.8-1.97-1.3-3.62-4.9-3.41-6.1-1.55-3-2.96-6.1-4.21-9.2-2.95 4-3.96 8.3-3.14 13.4.2-1.6 1.18-2.3 3.39-.7 7.84 12.6 12.17 29.1 7.29 43.5l-2.22 1.1c-10.36-5.8-11.4-19.4-13.43-30-1.55-12.3-.79-24.7 2.3-36.7 5.2-3.8 9.16 5.4 11.39 9.9zm-7.05 20.2c-4.06 4.7-2.26 12.8-.38 18.4 1.11 5.5 6.92 10.2 6.06 1.6.69-11.1-2.33-12.7-5.68-20zm66.4 69.4L256 491.7l112.8-123.1zm-21.4.3l-53.84 4.9 64.24 41.1c-2.6-2.7-4.9-5.7-7.1-8.8-5.2-6.9-10.5-13.6-18.9-16.6-8.75-6.5-4.2-5.3 2.9-2.6-1-1.8-.7-2.6.1-2.6 2.2-.2 8.4 4.2 9.8 6.3l24.7 31.6 65.1 41.7zm268.4 0l-42.4 46.3c6.4-3.1 11.3-8.5 17-12.4 2.4-1.4 3.7-1.9 4.3-1.9 2.1 0-5.4 7.1-7.7 10.3-9.4 9.8-16 23-28.6 29.1l18.9-24.5c-2.3 1.3-6 3.2-8.2 4.1l-40.3 44 74.5-47.6c5.4-6.7 1.9-5.6-5.7-.9l-11.4 6c11.4-13.7 30.8-28.3 40-35.6 9.2-7.3 15.9-9.8 8.2-1.5l-12.6 16c10-7.6.9 3.9-4.5 5.5-.7 1-1.4 2-2.2 2.9l54.5-34.9zM236 385.8v43.4h-13.4v-30c-5-1.4-10.4 1.7-15.3-.3-3.8-2.9 1-6.8 4.5-5.9 3.3-.1 7.6.2 9.3-3.2 4.4-4.5 9.6-4.4 14.9-4zm29 .5c12.1 1.2 24.2.6 36.6.6 1.5 3 .8 7.8-3.3 7.9-7.7.3-21-1.6-25.9.6-8.2 10.5 5.7 3.8 11.4 5.2 7 1.1 15 2.9 19.1 9.2 2.1 3.1 2.7 7.3.7 10.7-5.8 6.8-17 11.5-25.3 10.9-7.3-.6-15.6-1.1-20.6-7.1-6.4-10.6 10.5-6.7 12.2-3.2 6 5.3 20.3 1.9 20.7-4.7.6-4.2-2.1-6.3-6.9-7.8-4.8-1.5-12.6 1-17.3 1.8-4.7.8-9.6.5-9-4.4.8-4.2 2.7-8.1 2.7-12.5.1-3 1.7-7 4.9-7.2zm133.5 5c-.2-.2-7 5.8-9.9 8.1l-15.8 13.1c10.6-6.5 19.3-12 25.7-21.2zm-247 14.2c2.4 0 7.5 4.6 9.4 7l26.1 31.1c-7.7-2.1-13.3-7.1-17.6-13.7-6.5-7.3-11.3-16.6-21.2-19.6-9-5-5.2-6.4 2.1-2.2-.3-1.9.2-2.6 1.2-2.6z"
            fillOpacity="1"
            ></path>
        </g>
    </symbol>
    <symbol
    id="github"
    viewBox="0 0 24 24"
    >
        <path d="M12 0c-6.626 0-12 5.373-12 12 0 5.302 3.438 9.8 8.207 11.387.599.111.793-.261.793-.577v-2.234c-3.338.726-4.033-1.416-4.033-1.416-.546-1.387-1.333-1.756-1.333-1.756-1.089-.745.083-.729.083-.729 1.205.084 1.839 1.237 1.839 1.237 1.07 1.834 2.807 1.304 3.492.997.107-.775.418-1.305.762-1.604-2.665-.305-5.467-1.334-5.467-5.931 0-1.311.469-2.381 1.236-3.221-.124-.303-.535-1.524.117-3.176 0 0 1.008-.322 3.301 1.23.957-.266 1.983-.399 3.003-.404 1.02.005 2.047.138 3.006.404 2.291-1.552 3.297-1.23 3.297-1.23.653 1.653.242 2.874.118 3.176.77.84 1.235 1.911 1.235 3.221 0 4.609-2.807 5.624-5.479 5.921.43.372.823 1.102.823 2.222v3.293c0 .319.192.694.801.576 4.765-1.589 8.199-6.086 8.199-11.386 0-6.627-5.373-12-12-12z"/>
    </symbol>
    <symbol
    id="str"
    viewBox="0 0 512 512"
    >
        <g class="" transform="translate(0,0)">
            <path d="M211.832 39.06c-15.022 15.31-15.894 22.83-23.473 43.903 2.69 9.14 5.154 16.927 9.148 25.117 5.158.283 10.765.47 15.342.43-6.11-10.208-8.276-19.32-4.733-35.274 4.3 19.05 12.847 29.993 21.203 34.332 3.032-.334 5.957-.714 8.776-1.146-6.255-10.337-8.494-19.47-4.914-35.588 3.897 17.27 11.287 27.876 18.86 32.94 4.658-1.043 9.283-2.243 13.927-3.534-5.517-9.69-7.36-18.692-3.97-33.957 3.357 14.876 9.307 24.81 15.732 30.516 5.095-1.57 9.296-2.898 13.852-4.347-.685-5.782-.416-12.187 1.064-19.115l1.883-8.8 17.603 3.76-1.88 8.804c-3.636 17.008 1.324 24.42 7.306 28.666 5.98 4.244 14.69 3.46 16.03 2.6l7.576-4.86 9.72 15.15c-3.857 2.34-7.9 5.44-11.822 7.06 18.65 27.678 32.183 61.465 24.756 93.55-2.365 9.474-6.03 18.243-11.715 24.986 12.725 12.13 21.215 22.026 31.032 34.5-3.713-2.387-7.586-4.844-11.692-7.37-11.397-7.01-23.832-14.214-34.98-19.802-16.012-7.8-31.367-18.205-47.73-20.523-22.552-2.967-46.27 4.797-73.32 21.06 7.872 8.72 13.282 15.474 20.312 24.288-6.98-4.338-14.652-9.07-23.16-14.23-32.554-17.48-65.39-48.227-100.438-49.99-30.56-1.092-59.952 14.955-89.677 38.568L18 254.293V494h31.963c45.184-17.437 80.287-57.654 97.03-94.52l.25-.564.325-.52c9.463-15.252 11.148-29.688 16.79-44.732 5.645-15.044 16.907-29.718 41.884-38.756 4.353-2.16 5.07-1.415 8.633 1.395 30.468 24.01 57.29 32.02 83.24 32.35 32.61-1.557 58.442-9.882 85.682-19.38-3.966 3.528-8.77 7.21-13.986 10.762-15.323 10.436-34.217 19.928-46.304 24.8-14.716 2.006-28.36 2.416-41.967.616-9.96 12.09-25.574 20.358-37.35 26.673 63.92 14.023 115.88.91 167.386-22.896-9.522-1.817-19.008-3.692-27.994-5.42 31.634-4.422 64.984-3.766 94.705-3.53 4.084-.02 7.213-.453 8.7-.886 14.167-51.072-4.095-97.893-34.294-145.216-30.263-47.425-72.18-94.107-101.896-143.04-21.1-17.257-48.6-31.455-77.522-46.175-20.386 4.25-41.026 9.336-61.443 14.1zm85.385 70.49c-11.678 3.6-23.71 7.425-33.852 10.012 2.527 4.93 3.735 10.664 3.395 16.202 11.028.877 21.082-2.018 28.965-6.356 4.845-2.666 8.74-6.048 11.414-8.96-3.854-2.735-7.26-6.41-9.923-10.9zm-54.213 14.698c-11.76 1.143-24.59 2.362-35.06 2.236 2.39 4.772 3.78 12.067 8.51 14.84 11.18 1.164 20.6 1.997 29.91-1.746 5.435-3.214 1.818-15.058-3.36-15.33zm-34.98 209.332c-17.593 7.233-22.586 15.14-26.813 26.406-3.998 10.66-6.227 25.076-14.48 41.014 32.29-6.38 69.625-21.23 93.852-40.088-17.017-5.098-34.553-13.852-52.557-27.332zm9.318 71.385c-18.723 7.237-40.836 16.144-59.696 14.062C143.774 446.68 124.012 474.03 91.762 494h84.68c21.564-29.798 38.067-56.575 40.9-89.035z" fill-opacity="1"></path>
        </g>
    </symbol>
    <symbol
    id="dex"
    viewBox="0 0 512 512"
    >
        <g class="" transform="translate(0,0)">
            <path d="M309.752 35.514c-3.784.046-7.807.454-12.004 1.082-27.198 61.067-49.85 122.007-65.45 182.775-9.293-4.313-18.634-8.57-27.962-12.845-3.95-53.137 1.876-103.13 5.33-153.757-6.696-5.06-17.54-8.82-28.596-8.98-11.573-.166-22.304 3.33-28.537 9.513-5.44 70.22-5.258 147.354 1.133 217.475 21.926 29.733 45.877 59.903 52.305 103.64l-18.49 2.716c-4.24-28.837-17.583-51.34-33.238-73.51l-7.582-10.55c-5.01-6.862-10.134-13.79-15.185-20.945-21.397-28.51-44.094-51.49-62.155-59.22-9.81-4.196-17.273-4.385-24.632-.442-6.486 3.474-13.52 11.49-20.043 25.387 53.41 51.674 70.576 104.044 82.718 138.664 5.79 16.507 11.08 31.523 21.274 47.025 15.614 23.746 49.446 42.91 84.066 49.51 34.62 6.598 68.69.712 86.87-19.833 14.36-16.227 41.232-41.87 56.195-57.787 24.524-26.085 59.485-54.964 88.597-77.248 14.556-11.142 27.62-20.598 37.197-27.178 4.79-3.29 8.68-5.848 11.612-7.625.197-.12.34-.182.527-.294 1.31-9.873-.448-20.663-4.804-29.375-4.358-8.718-10.787-14.658-17.763-17.015-35.707 21.283-70.62 44.438-103.877 75.438-5.745-7.274-11.933-14.06-18.5-20.424 30.747-58.815 69.992-107.75 114.28-150.41-1.56-9.55-7.76-19.814-16.114-27.32-8.4-7.55-18.526-11.7-25.852-11.623-45.615 46.382-85.864 96.907-117.5 154.463-6.918-4.36-14.023-8.513-21.27-12.51 18.893-64.715 42.99-126.426 73.5-184.392-12.757-15.245-25.477-23.335-42.347-24.324-1.205-.07-2.44-.096-3.7-.08z" fill-opacity="1"></path>
        </g>
    </symbol>
    <symbol
    id="con"
    viewBox="0 0 512 512"
    >
        <g transform="translate(0,0)">
            <path d="M480.25 156.355c0 161.24-224.25 324.43-224.25 324.43S31.75 317.595 31.75 156.355c0-91.41 70.63-125.13 107.77-125.13 77.65 0 116.48 65.72 116.48 65.72s38.83-65.73 116.48-65.73c37.14.01 107.77 33.72 107.77 125.14z" fill-opacity="1"></path>
        </g>
    </symbol>
    <symbol
    id="int"
    viewBox="0 0 512 512"
    >
        <g transform="translate(0,0)">
            <path d="M241.063 54.406c-2.31.008-4.61.032-6.907.094-1.805.05-3.61.106-5.406.188-8.814 1.567-12.884 5.426-15.094 9.843-2.435 4.87-2.34 11.423.375 17.25 2.717 5.83 7.7 10.596 14.657 12.376 6.958 1.78 16.536.86 29.125-7.187l10.063 15.75c-15.818 10.11-31.124 12.777-43.813 9.53-12.688-3.247-22.103-12.123-26.968-22.563-4.584-9.836-5.426-21.376-1.03-31.624-42.917 6.94-81.777 23.398-111.626 46.562-9.81 10.688-10.77 23.11-6.47 31.594 4.83 9.526 16.21 16.48 38.97 9.28l5.656 17.813c-28.58 9.04-52.137-.588-61.28-18.625-2.23-4.397-3.592-9.156-4.127-14.063-4.814 5.712-9.16 11.658-13 17.844l.126.06c-8.614 19.616-8.81 33.203-5.376 42.032 3.436 8.83 10.635 14.44 21.72 17.532 22.168 6.18 58.065-1.277 83.343-20.156 10.82-8.08 21.077-27.677 21.97-42.875.445-7.6-1.165-13.604-4.345-17.438-3.18-3.834-8.272-6.703-18.813-6.594l-.187-18.686c14.487-.15 26.25 4.754 33.375 13.344 7.124 8.59 9.26 19.652 8.625 30.468-1.27 21.633-12.595 44.172-29.438 56.75-29.876 22.314-69.336 31.606-99.53 23.188-13.988-3.9-26.37-12.386-32.75-25.53-9.546 45.446 4.323 87.66 30.718 116.874 3.45 3.82 7.122 7.43 10.97 10.78-2.754-7.887-4.016-16.1-3.72-24.093.53-14.325 6.082-28.346 17.22-38.03 9.134-7.946 21.752-12.53 36.843-12.5 1.006 0 2.034.018 3.062.06 2.35.1 4.763.304 7.22.626l-2.44 18.532c-15.588-2.048-25.705 1.522-32.436 7.375-6.73 5.854-10.443 14.614-10.813 24.625-.74 20.024 12.07 43.406 39.69 50.188l-.032.188c27.192 5.19 57.536.372 88-18.22.018-.012.043-.017.062-.03 6.34-4.45 9.755-8.808 11.438-12.563 1.985-4.432 1.943-8.292.53-12.438-2.824-8.29-12.94-16.812-22.218-19.187-15.002-3.84-24.532 1.436-29 7.72-4.468 6.28-4.74 12.45 2.156 17.81l-11.47 14.75c-14.187-11.033-15.092-30.487-5.905-43.405 6.892-9.688 18.985-16.326 33.564-16.75.607-.018 1.228-.036 1.844-.03 4.306.03 8.79.622 13.437 1.81 15.505 3.97 29.84 15.277 35.28 31.25 1.416 4.155 2.09 8.69 1.876 13.314 16.71-8.538 34.332-16.12 52.282-21.814 30.156-13.78 43.23-37.938 42.72-58.28-.515-20.493-13.187-37.74-42.376-40.626l1.844-18.594c36.666 3.626 58.462 29.848 59.188 58.75.422 16.84-5.754 34.363-18.188 49.28 16.072-1.8 32.044-1.495 47.53 1.627-3.152-6.472-4.68-13.478-4.467-20.438.677-22.036 19.42-42.593 48.875-42.906 1.963-.022 3.974.053 6.03.218l-1.5 18.625c-24.927-1.998-34.3 11.086-34.718 24.656-.412 13.42 8.545 28.442 34.22 30.436 28.3.25 48.588-15.098 58.53-37.906 13.31-30.536 6.997-76.317-34.844-118.188-.792-.793-1.578-1.593-2.375-2.375-.444 3.792-1.424 7.443-2.842 10.844-7.25 17.39-24.233 29.128-41.875 32.407-24.335 4.522-44.29-5.347-53.5-20.406-9.21-15.057-6.792-36.35 9.78-47.56l10.47 15.5c-8.913 6.028-9.28 14.19-4.313 22.31 4.967 8.122 16.17 15.156 34.156 11.814 11.306-2.102 23.896-11.33 28.03-21.25 2.07-4.96 2.47-9.862.408-15.47-1.675-4.555-5.187-9.764-11.72-15.25l-.187-.155c-27.316-20.587-56.338-35.393-85.75-45.157.018.032.045.06.063.093 6.684 12.22 7.18 26.082 3.063 38.344-8.233 24.525-34.07 43.848-66.032 42.78-6.948-.23-13.56 3.12-19.186 9.657-5.627 6.537-9.735 16.113-10.688 26.313-1.905 20.4 6.923 42.886 41.344 54L277 258.28c-41.083-13.264-56.83-45.546-54.22-73.5 1.307-13.975 6.706-26.962 15.157-36.78 8.452-9.818 20.475-16.603 33.97-16.156 24.04.802 42.323-14.084 47.687-30.063 2.682-7.988 2.335-15.937-1.75-23.405-3.968-7.252-11.83-14.423-25.906-19.656-17.114-2.967-34.16-4.367-50.875-4.314zM342.28 306.344c-41.915 3.41-87.366 23.4-125.28 46.562-55.98 34.198-114.89 26.733-156.688-4.28 16.444 58.844 74.712 70.788 135.5 55.905 6.083-2.285 12.06-6.538 17.157-12.03 7.057-7.607 12.17-17.47 13.78-25.625l18.344 3.625c-2.445 12.383-9.078 24.666-18.406 34.72-8.95 9.645-20.61 17.35-34.094 19.374-6.766 15.07-12.334 29.68-14.594 39.906-3.55 16.06 14.206 22.225 22.156 6.03 19.022-38.743 45.87-73.23 79.406-102.967 26.064-17.153 48.406-38.303 62.72-61.22z" fill-opacity="1"></path>
        </g>
    </symbol>
    <symbol
    id="wis"
    viewBox="0 0 512 512"
    >
        <g transform="translate(0,0)">
            <path d="M70.574 17.27l-4.87 18.044c24.228 6.543 46.02 15.573 65.478 26.704-21.276 15.76-35.307 42.705-35.307 73.314 0 13.593 2.77 26.463 7.707 37.955-21.82 20.365-35.004 49.398-35.004 87.504 0 70.68 42.857 131.724 104.85 161.005l-30.71 70.36h20.376l27.594-63.216c3.01 1.077 6.05 2.09 9.13 3.02 3.56 2.76 7.186 5.25 10.868 7.487l-13.03 52.71h19.28l10.945-44.32c6.856 2.546 13.842 4.224 20.9 5.007v39.312h18.69V452.8c7.872-.906 15.65-2.936 23.255-6.056l11.212 45.412h19.25l-13.44-54.418c3.4-2.222 6.75-4.66 10.036-7.343 3.22-1.07 6.398-2.226 9.537-3.456l28.46 65.216h20.376l-31.8-72.863c59.226-30.165 99.74-89.782 99.74-158.502 0-37.114-12.51-65.62-33.32-85.897 5.383-11.896 8.435-25.327 8.435-39.56 0-30.5-13.928-57.36-35.073-73.144 19.638-11.334 41.452-20.41 65.396-26.876l-4.87-18.043c-26.26 7.092-50.213 17.245-71.75 30-34.084-18.84-77.19-28.164-120.214-28.114-40.908.048-81.73 8.575-114.655 25.448-20.227-11.394-42.7-20.644-67.47-27.333zM252.707 38.67c36.446-.044 72.955 6.705 102.084 20.348-45.112 31.892-77.918 76.2-97.15 127.79C238.314 134.672 205 88.95 157.073 56.388c27.807-11.744 61.69-17.68 95.635-17.722zm-83.605 68.373c19.4 0 35.33 15.923 35.33 35.32 0 19.4-15.93 35.324-35.33 35.324S133.77 161.76 133.77 142.36c0-19.398 15.932-35.32 35.332-35.32zm179.44 0c19.4 0 35.33 15.923 35.33 35.32 0 19.4-15.93 35.324-35.33 35.324-19.402 0-35.333-15.923-35.333-35.323 0-19.398 15.93-35.32 35.33-35.32zm-110.378 80.69c4.052 10.347 7.523 21 10.424 31.913l9.03 33.964 9.03-33.964c2.895-10.888 6.368-21.472 10.405-31.72 14.39 21.47 37.346 35.386 63.236 35.386 14.44 0 27.964-4.346 39.608-11.896-4.003 70.85-18.94 124.726-39.34 161.416-23.964 43.104-54.35 62.274-83.537 61.836-29.184-.438-59.806-20.672-83.803-64.074-20.432-36.954-35.36-90.513-39.354-160.03C145.8 218.65 159.81 223.31 174.8 223.31c25.967 0 48.984-14 63.364-35.58zm-125.266 2.147c.433.61.864 1.22 1.31 1.816 2.165 81.335 18.39 144.056 42.653 187.942 3.655 6.61 7.513 12.784 11.538 18.55-48.72-28.262-81.132-79.294-81.132-137.394 0-32.026 9.226-54.484 25.632-70.913zm288.282 1.428c15.53 16.296 24.226 38.38 24.226 69.486 0 56.37-30.516 106.083-76.828 134.804 2.87-4.334 5.65-8.887 8.315-13.682 24.163-43.46 40.328-106.15 42.628-188.473.56-.707 1.122-1.41 1.66-2.135zm-237.496 59.052c-3.753 6.263-6.096 14.53-6.096 23.24 0 20.065 12.095 35.915 26.82 35.915 12.53 0 23.354-11.585 26.21-27.465-4.692 4.098-10.472 6.34-16.456 6.34-15.98 0-29.423-16.616-30.478-38.03zm185.912 2.477c-1.056 21.413-14.496 38.03-30.477 38.03-5.985 0-11.763-2.242-16.458-6.34 2.858 15.88 13.68 27.466 26.21 27.466 14.726 0 26.21-15.85 26.21-35.916 0-8.71-1.732-16.977-5.484-23.24h-.002zm-68.73 28.97c-3.51 13.094-14.307 23.18-24.53 23.18-9.984 0-20.61-10.057-23.943-22.507-.813 3.397-1.752 7.03-1.752 10.796 0 19.225 11.59 34.41 25.698 34.41s25.697-15.185 25.697-34.41c0-3.986-.26-7.9-1.168-11.47h-.002zm35.04 66.706c-3.435 16.552-14.208 29.013-27.45 29.013-8.24 0-15.752-4.6-21.024-12.146.738 18.326 12.065 33.062 25.697 33.062 14.107 0 25.696-15.862 25.696-35.086 0-5.407-1.303-10.277-2.92-14.844zm-115.636 1.347c-1.294 4.168-1.752 8.69-1.752 13.497 0 19.224 11.59 35.085 25.697 35.085 13.633 0 24.375-14.737 25.113-33.063-5.272 7.545-12.784 12.146-21.025 12.146-12.916 0-24.314-11.735-28.032-27.666z" fill-opacity="1"></path>
        </g>
    </symbol>
    <symbol
    id="cha"
    viewBox="0 0 512 512"
    >
        <g transform="translate(0,0)">
            <path d="M166.844 112.344c-42.01 38.554-97.815 75.023-147.53 86.03 39.097 14.38 89.036 18.718 134.717 9.157 53.264 31.33 128.095 32.185 184.876 0 44.99 15.297 96.346 13.18 149.688-9.31-59.564-9.606-125.004-51.588-155.25-85.876-55.502 39.62-111 32.146-166.5 0zm-133.72 114.03c17.33 29.572 48.467 79.248 89.75 131.064 27.24 34.188 76.606 31.093 129.97 31.093 49.298 0 102.29.706 127.625-31.092 37.724-47.35 68.59-92.143 88.217-122-124.874 84.53-316.773 93.18-435.562-9.063z" fill-opacity="1"></path>
        </g>
    </symbol>
</svg>