<?xml version="1.0" standalone="no"?>
<!DOCTYPE svg PUBLIC "-//W3C//DTD SVG 20010904//EN"
 "http://www.w3.org/TR/2001/REC-SVG-20010904/DTD/svg10.dtd">
<svg version="1.0" xmlns="http://www.w3.org/2000/svg"
 width="700.000000pt" height="700.000000pt" viewBox="0 0 700.000000 700.000000"
 preserveAspectRatio="xMidYMid meet">
<metadata>
Created by potrace 1.14, written by Peter Selinger 2001-2017
</metadata>
<g transform="translate(0.000000,700.000000) scale(0.100000,-0.100000)"
fill="#000000" stroke="none">
<path d="M2315 6033 c-588 -376 -1125 -718 -1192 -761 l-122 -77 47 -3 c57 -3
2334 47 2339 51 2 2 2 335 1 739 l-3 736 -1070 -685z m590 -86 c80 -39 86 -95
21 -179 -61 -77 -100 -104 -208 -146 -80 -31 -104 -36 -178 -36 -82 0 -88 2
-173 47 -131 70 -138 67 -155 -71 -5 -45 -16 -90 -23 -99 -13 -15 -91 -53
-110 -53 -5 0 -9 71 -9 164 l0 164 53 19 c36 12 82 18 152 18 96 0 103 -2 183
-39 70 -34 93 -40 145 -39 69 1 105 12 158 49 49 33 62 65 42 94 -15 21 -21
22 -89 16 -73 -7 -74 -7 -74 17 0 38 40 66 116 81 69 13 112 12 149 -7z"/>
<path d="M3610 5982 l0 -740 218 -6 c391 -12 2152 -48 2162 -44 5 2 -147 103
-338 224 -341 218 -1975 1263 -2019 1292 l-23 14 0 -740z m619 -31 c34 -11 91
-38 127 -61 64 -42 65 -43 129 -36 101 10 229 -30 323 -102 42 -32 109 -125
117 -162 9 -39 -18 -87 -60 -107 -30 -14 -44 -15 -97 -5 -169 31 -217 122 -64
122 23 0 51 6 62 14 19 14 19 15 -2 43 -32 43 -104 83 -161 89 -47 6 -51 5
-72 -25 -39 -55 -118 -35 -161 41 -50 88 -230 135 -230 59 0 -24 57 -77 103
-96 45 -19 58 -43 32 -61 -28 -21 -83 -17 -118 8 -54 36 -118 101 -138 140
-29 57 -25 92 14 121 54 42 106 46 196 18z"/>
<path d="M2825 5008 c-187 -4 -726 -17 -1198 -27 -472 -11 -860 -21 -862 -23
-4 -4 958 -2615 966 -2622 4 -3 1559 2650 1567 2674 2 6 -21 9 -65 8 -37 0
-221 -5 -408 -10z m-713 -460 c45 -13 122 -77 143 -119 30 -58 11 -154 -35
-179 -34 -18 -56 -2 -83 58 -13 31 -34 65 -45 76 -27 23 -83 23 -124 -1 -30
-17 -98 -103 -98 -124 0 -5 23 -9 50 -9 87 0 159 -52 201 -145 50 -108 -9
-309 -117 -405 -61 -53 -106 -70 -187 -70 -68 0 -79 3 -123 33 -35 23 -57 48
-78 90 -44 86 -41 165 11 322 86 256 183 393 328 461 56 26 98 30 157 12z"/>
<path d="M1808 4095 c-41 -23 -71 -112 -66 -199 3 -60 7 -71 31 -92 54 -46
138 -20 176 54 50 97 48 173 -4 222 -30 28 -100 36 -137 15z"/>
<path d="M3702 5010 c8 -24 1563 -2677 1567 -2674 8 7 970 2619 966 2622 -2 2
-480 15 -1062 27 -582 13 -1152 26 -1266 29 -141 4 -208 3 -205 -4z m1555
-355 c104 -31 216 -140 286 -280 109 -218 103 -533 -11 -599 -42 -24 -156 -33
-206 -16 -52 17 -138 100 -190 183 -106 170 -166 342 -166 476 0 97 14 144 53
187 55 60 138 77 234 49z m-385 -640 l196 -436 -65 -29 c-36 -16 -68 -28 -72
-26 -4 3 -67 135 -140 295 l-134 290 -58 -30 c-32 -16 -68 -29 -79 -29 -30 0
-60 35 -60 73 0 26 9 40 51 77 50 44 51 47 59 116 10 98 33 133 86 134 18 0
48 -60 216 -435z"/>
<path d="M5152 4511 c-34 -21 -30 -112 10 -246 54 -178 112 -279 183 -320 89
-53 120 -22 112 113 -4 70 -12 104 -42 177 -68 166 -112 228 -186 266 -42 21
-57 23 -77 10z"/>
<path d="M2699 3547 l-796 -1362 799 -3 c439 -1 1157 -1 1596 0 l799 3 -796
1362 c-438 749 -798 1362 -801 1362 -3 0 -363 -613 -801 -1362z m548 0 c142
-73 201 -207 157 -356 -22 -74 -85 -139 -224 -229 -161 -105 -206 -150 -164
-166 9 -3 101 -6 205 -6 l189 0 0 -59 c0 -105 18 -100 -353 -94 l-319 6 7 46
c9 63 56 158 106 214 22 26 88 79 146 119 164 112 227 186 227 270 1 61 -58
123 -125 134 -56 9 -99 -16 -133 -78 -40 -72 -63 -97 -106 -108 -42 -11 -95 2
-104 25 -13 34 53 193 96 231 72 63 140 85 253 81 74 -3 99 -8 142 -30z m777
-2 c98 -46 165 -148 200 -302 58 -261 -39 -523 -228 -612 -164 -77 -378 55
-435 267 -65 240 -1 508 147 617 95 70 208 81 316 30z"/>
<path d="M3853 3408 c-41 -11 -76 -53 -103 -125 -28 -74 -35 -149 -21 -243 15
-110 39 -175 84 -226 31 -36 45 -44 73 -44 49 0 100 48 120 113 24 81 30 297
10 377 -30 120 -84 169 -163 148z"/>
<path d="M710 4036 l0 -408 23 -19 c30 -25 37 -24 64 9 22 26 23 27 38 8 13
-17 15 -81 15 -439 0 -278 -3 -416 -10 -412 -17 11 -40 63 -50 113 -5 28 -5
124 1 241 11 211 4 279 -32 317 -11 12 -27 41 -34 65 -12 38 -14 -56 -14 -688
-1 -580 2 -733 12 -733 62 2 818 78 823 82 5 6 -820 2255 -832 2267 -2 2 -4
-179 -4 -403z m366 -731 c14 -14 38 -52 53 -85 31 -64 69 -225 57 -238 -8 -7
-56 46 -56 63 0 18 -54 135 -63 135 -12 0 -35 -62 -39 -106 -3 -34 0 -39 19
-42 30 -4 73 -81 114 -202 38 -112 50 -269 27 -354 -17 -65 -36 -76 -76 -46
-93 69 -150 253 -159 516 -5 141 13 319 37 365 15 27 56 24 86 -6z"/>
<path d="M1030 2874 c-30 -77 17 -279 69 -299 25 -10 32 17 28 100 -2 65 -9
94 -37 153 -18 39 -37 72 -42 72 -5 0 -13 -12 -18 -26z"/>
<path d="M5867 3311 c-231 -623 -416 -1135 -413 -1139 7 -6 828 -84 833 -78 2
1 2 531 1 1176 l-3 1174 -418 -1133z m377 306 c20 -27 21 -40 20 -260 0 -178
-4 -253 -18 -322 -25 -128 -70 -238 -118 -288 l-40 -42 -25 29 c-21 25 -24 37
-20 72 2 23 15 59 27 80 21 34 24 35 36 19 19 -25 35 -9 69 67 34 76 50 213
22 189 -10 -7 -17 -20 -17 -29 0 -26 -47 -97 -73 -111 -38 -20 -53 -9 -68 51
-22 85 -16 228 15 331 27 90 76 198 104 230 22 25 61 18 86 -16z m-341 -1149
l-28 -42 -3 282 -2 282 -31 -35 c-17 -19 -37 -35 -45 -35 -25 0 -16 68 15 124
16 28 41 93 56 145 14 52 34 108 43 125 16 30 17 11 20 -387 l2 -417 -27 -42z"/>
<path d="M6147 3482 c-26 -28 -50 -148 -44 -220 5 -71 7 -75 31 -66 24 9 44
53 61 135 17 79 12 129 -14 153 -16 15 -19 15 -34 -2z"/>
<path d="M2090 1818 c72 -79 417 -457 768 -840 350 -383 640 -696 643 -695 3
1 328 355 723 787 396 432 742 809 770 838 l50 52 -1542 0 -1543 0 131 -142z
m1138 -390 l2 -298 -95 0 -95 0 0 204 c0 154 -3 205 -12 209 -7 2 -45 2 -84
-1 -115 -8 -153 12 -115 60 15 18 33 23 90 29 63 5 76 10 105 38 42 40 98 61
156 58 l45 -2 3 -297z m695 282 l207 0 0 -38 c0 -68 -11 -72 -214 -69 l-178 2
-24 -28 c-27 -31 -31 -55 -11 -63 7 -2 44 0 82 5 122 18 279 -29 338 -99 65
-76 57 -156 -20 -215 -102 -78 -213 -111 -335 -100 -109 9 -172 30 -218 71
-70 63 -62 114 19 114 45 0 80 -14 136 -54 33 -24 120 -32 169 -16 61 20 96
56 96 99 0 43 -17 62 -73 86 -48 20 -71 19 -203 -6 -97 -19 -115 -20 -140 -8
-36 17 -41 44 -21 118 9 31 19 80 22 110 5 38 15 62 32 79 22 22 30 24 76 18
29 -3 145 -6 260 -6z"/>
<path d="M1265 1920 c-159 -15 -298 -29 -309 -31 -12 -3 116 -91 380 -259 219
-140 411 -263 427 -273 22 -14 10 6 -48 83 -92 119 -162 185 -237 223 -57 29
-96 62 -85 73 3 4 26 -1 51 -9 35 -12 44 -13 40 -2 -9 22 14 27 46 10 56 -29
99 -76 267 -291 l167 -215 415 -266 c229 -146 427 -273 441 -281 18 -11 13 -3
-16 29 -23 24 -287 313 -588 642 l-546 597 -58 -1 c-31 -1 -187 -14 -347 -29z
m851 -485 c30 -18 105 -99 239 -258 107 -128 190 -233 186 -235 -16 -5 -90 37
-133 76 -23 20 -81 87 -129 148 -105 132 -149 174 -226 213 -32 16 -69 38 -83
50 l-25 20 28 1 c16 0 38 -5 49 -11 17 -9 23 -8 30 5 12 21 13 21 64 -9z"/>
<path d="M5054 1649 c-152 -165 -274 -302 -271 -305 2 -3 33 18 68 45 81 64
179 131 190 131 20 0 6 -21 -69 -106 -43 -49 -114 -134 -159 -189 -108 -134
-231 -250 -248 -233 -2 2 41 62 96 133 55 72 110 143 121 158 l20 29 -54 -29
c-44 -23 -98 -75 -283 -278 -125 -137 -247 -270 -269 -294 -29 -32 -34 -40
-16 -29 14 8 243 154 508 324 345 220 488 317 498 336 10 18 11 28 3 28 -6 0
-62 -28 -125 -61 -63 -34 -117 -59 -120 -57 -10 11 244 244 413 378 178 143
265 200 271 179 2 -5 -15 -33 -37 -62 -135 -171 -162 -208 -143 -198 31 16 34
14 17 -13 -9 -14 -41 -41 -71 -62 -30 -20 -52 -39 -50 -41 2 -3 164 98 360
223 196 125 355 229 353 230 -5 5 -648 64 -692 64 -32 0 -52 -19 -311 -301z"/>
<path d="M5295 1524 c-146 -121 -171 -143 -145 -129 35 19 128 85 172 122 42
34 125 123 116 123 -2 0 -67 -52 -143 -116z"/>
</g>
</svg>
